<svg xmlns="http://www.w3.org/2000/svg" viewBox="0 0 512 512"><path fill="#f0f0f0" d="M0 0h512v512H0z"/><path fill="#d80027" d="M0 0h512v39.38H0zM0 78.77h512v39.38H0zM0 157.54h512v39.38H0zM0 236.31h512v39.38H0zM0 315.08h512v39.38H0zM0 393.85h512v39.38H0zM0 472.62h512V512H0z"/><path fill="#0052b4" d="M0 0h204.8v275.69H0z"/><path fill="#f0f0f0" d="m17.07 18 2.15 6.61h6.95l-5.63 4.09 2.15 6.61-5.62-4.08-5.63 4.08 2.15-6.61-5.63-4.09h6.96ZM51.2 18l2.15 6.61h6.95l-5.62 4.09 2.15 6.61-5.63-4.08-5.63 4.08 2.15-6.61-5.62-4.09h6.95ZM85.33 18l2.15 6.61h6.96l-5.63 4.09 2.15 6.61-5.63-4.08-5.62 4.08 2.15-6.61-5.63-4.09h6.95ZM119.47 18l2.15 6.61h6.95l-5.63 4.09 2.15 6.61-5.62-4.08-5.63 4.08 2.15-6.61-5.63-4.09h6.96ZM153.6 18l2.15 6.61h6.95l-5.62 4.09 2.15 6.61-5.63-4.08-5.63 4.08 2.15-6.61-5.62-4.09h6.95ZM187.73 18l2.15 6.61h6.96l-5.63 4.09 2.15 6.61-5.63-4.08-5.62 4.08 2.15-6.61-5.63-4.09h6.95ZM34.13 45.57l2.15 6.61h6.96l-5.63 4.09 2.15 6.61-5.63-4.09-5.62 4.09 2.15-6.61-5.63-4.09h6.95ZM68.27 45.57l2.15 6.61h6.95l-5.63 4.09 2.15 6.61-5.62-4.09-5.63 4.09 2.15-6.61-5.63-4.09h6.96ZM102.4 45.57l2.15 6.61h6.95l-5.62 4.09 2.15 6.61-5.63-4.09-5.63 4.09 2.15-6.61-5.62-4.09h6.95ZM136.53 45.57l2.15 6.61h6.96l-5.63 4.09 2.15 6.61-5.63-4.09-5.62 4.09 2.15-6.61-5.63-4.09h6.95ZM170.67 45.57l2.15 6.61h6.95l-5.63 4.09 2.15 6.61-5.62-4.09-5.63 4.09 2.15-6.61-5.63-4.09h6.96ZM17.07 73.14l2.15 6.61h6.95l-5.63 4.09 2.15 6.61-5.62-4.09-5.63 4.09 2.15-6.61-5.63-4.09h6.96ZM51.2 73.14l2.15 6.61h6.95l-5.62 4.09 2.15 6.61-5.63-4.09-5.63 4.09 2.15-6.61-5.62-4.09h6.95ZM85.33 73.14l2.15 6.61h6.96l-5.63 4.09 2.15 6.61-5.63-4.09-5.62 4.09 2.15-6.61-5.63-4.09h6.95ZM119.47 73.14l2.15 6.61h6.95l-5.63 4.09 2.15 6.61-5.62-4.09-5.63 4.09 2.15-6.61-5.63-4.09h6.96ZM153.6 73.14l2.15 6.61h6.95l-5.62 4.09 2.15 6.61-5.63-4.09-5.63 4.09 2.15-6.61-5.62-4.09h6.95ZM187.73 73.14l2.15 6.61h6.96l-5.63 4.09 2.15 6.61-5.63-4.09-5.62 4.09 2.15-6.61-5.63-4.09h6.95ZM34.13 100.7l2.15 6.62h6.96l-5.63 4.09 2.15 6.61-5.63-4.09-5.62 4.09 2.15-6.61-5.63-4.09h6.95ZM68.27 100.7l2.15 6.62h6.95l-5.63 4.09 2.15 6.61-5.62-4.09-5.63 4.09 2.15-6.61-5.63-4.09h6.96ZM102.4 100.7l2.15 6.62h6.95l-5.62 4.09 2.15 6.61-5.63-4.09-5.63 4.09 2.15-6.61-5.62-4.09h6.95ZM136.53 100.7l2.15 6.62h6.96l-5.63 4.09 2.15 6.61-5.63-4.09-5.62 4.09 2.15-6.61-5.63-4.09h6.95ZM170.67 100.7l2.15 6.62h6.95l-5.63 4.09 2.15 6.61-5.62-4.09-5.63 4.09 2.15-6.61-5.63-4.09h6.96ZM17.07 128.27l2.15 6.62h6.95l-5.63 4.09 2.15 6.61-5.62-4.09-5.63 4.09 2.15-6.61-5.63-4.09h6.96ZM51.2 128.27l2.15 6.62h6.95l-5.62 4.09 2.15 6.61-5.63-4.09-5.63 4.09 2.15-6.61-5.62-4.09h6.95ZM85.33 128.27l2.15 6.62h6.96l-5.63 4.09 2.15 6.61-5.63-4.09-5.62 4.09 2.15-6.61-5.63-4.09h6.95ZM119.47 128.27l2.15 6.62h6.95l-5.63 4.09 2.15 6.61-5.62-4.09-5.63 4.09 2.15-6.61-5.63-4.09h6.96ZM153.6 128.27l2.15 6.62h6.95l-5.62 4.09 2.15 6.61-5.63-4.09-5.63 4.09 2.15-6.61-5.62-4.09h6.95ZM187.73 128.27l2.15 6.62h6.96l-5.63 4.09 2.15 6.61-5.63-4.09-5.62 4.09 2.15-6.61-5.63-4.09h6.95ZM34.13 155.84l2.15 6.62h6.96l-5.63 4.09 2.15 6.61-5.63-4.09-5.62 4.09 2.15-6.61-5.63-4.09h6.95ZM68.27 155.84l2.15 6.62h6.95l-5.63 4.09 2.15 6.61-5.62-4.09-5.63 4.09 2.15-6.61-5.63-4.09h6.96ZM102.4 155.84l2.15 6.62h6.95l-5.62 4.09 2.15 6.61-5.63-4.09-5.63 4.09 2.15-6.61-5.62-4.09h6.95ZM136.53 155.84l2.15 6.62h6.96l-5.63 4.09 2.15 6.61-5.63-4.09-5.62 4.09 2.15-6.61-5.63-4.09h6.95ZM170.67 155.84l2.15 6.62h6.95l-5.63 4.09 2.15 6.61-5.62-4.09-5.63 4.09 2.15-6.61-5.63-4.09h6.96ZM17.07 183.41l2.15 6.62h6.95l-5.63 4.08 2.15 6.62-5.62-4.09-5.63 4.09 2.15-6.62-5.63-4.08h6.96ZM51.2 183.41l2.15 6.62h6.95l-5.62 4.08 2.15 6.62-5.63-4.09-5.63 4.09 2.15-6.62-5.62-4.08h6.95ZM85.33 183.41l2.15 6.62h6.96l-5.63 4.08 2.15 6.62-5.63-4.09-5.62 4.09 2.15-6.62-5.63-4.08h6.95ZM119.47 183.41l2.15 6.62h6.95l-5.63 4.08 2.15 6.62-5.62-4.09-5.63 4.09 2.15-6.62-5.63-4.08h6.96ZM153.6 183.41l2.15 6.62h6.95l-5.62 4.08 2.15 6.62-5.63-4.09-5.63 4.09 2.15-6.62-5.62-4.08h6.95ZM187.73 183.41l2.15 6.62h6.96l-5.63 4.08 2.15 6.62-5.63-4.09-5.62 4.09 2.15-6.62-5.63-4.08h6.95ZM34.13 210.98l2.15 6.62h6.96l-5.63 4.08 2.15 6.62-5.63-4.09-5.62 4.09 2.15-6.62-5.63-4.08h6.95ZM68.27 210.98l2.15 6.62h6.95l-5.63 4.08 2.15 6.62-5.62-4.09-5.63 4.09 2.15-6.62-5.63-4.08h6.96ZM102.4 210.98l2.15 6.62h6.95l-5.62 4.08 2.15 6.62-5.63-4.09-5.63 4.09 2.15-6.62-5.62-4.08h6.95ZM136.53 210.98l2.15 6.62h6.96l-5.63 4.08 2.15 6.62-5.63-4.09-5.62 4.09 2.15-6.62-5.63-4.08h6.95ZM170.67 210.98l2.15 6.62h6.95l-5.63 4.08 2.15 6.62-5.62-4.09-5.63 4.09 2.15-6.62-5.63-4.08h6.96ZM17.07 238.55l2.15 6.61h6.95l-5.63 4.09 2.15 6.62-5.62-4.09-5.63 4.09 2.15-6.62-5.63-4.09h6.96ZM51.2 238.55l2.15 6.61h6.95l-5.62 4.09 2.15 6.62-5.63-4.09-5.63 4.09 2.15-6.62-5.62-4.09h6.95ZM85.33 238.55l2.15 6.61h6.96l-5.63 4.09 2.15 6.62-5.63-4.09-5.62 4.09 2.15-6.62-5.63-4.09h6.95ZM119.47 238.55l2.15 6.61h6.95l-5.63 4.09 2.15 6.62-5.62-4.09-5.63 4.09 2.15-6.62-5.63-4.09h6.96ZM153.6 238.55l2.15 6.61h6.95l-5.62 4.09 2.15 6.62-5.63-4.09-5.63 4.09 2.15-6.62-5.62-4.09h6.95ZM187.73 238.55l2.15 6.61h6.96l-5.63 4.09 2.15 6.62-5.63-4.09-5.62 4.09 2.15-6.62-5.63-4.09h6.95Z"/></svg>