<svg xmlns="http://www.w3.org/2000/svg" viewBox="0 0 512 512"><path fill="#de2910" d="M0 0h512v512H0z"/><path fill="#ffde00" d="m85.33 119.47 11.5 35.37h37.2l-30.1 21.87 11.5 35.38-30.1-21.87-30.09 21.87 11.49-35.38-30.09-21.87h37.2ZM156.03 128.25l8.14-9.36-6.38-10.63 11.41 4.85 8.15-9.35-1.09 12.35 11.41 4.85-12.09 2.79-1.08 12.35-6.38-10.63ZM187.9 156.01l11.14-5.46-1.76-12.27 8.64 8.9 11.13-5.46-5.8 10.96 8.64 8.9-12.22-2.13-5.8 10.96-1.75-12.27ZM188.39 200.11l12.39-.44 3.41-11.93 4.25 11.65 12.39-.44-9.76 7.64 4.25 11.65-10.29-6.93-9.76 7.65 3.41-11.92ZM157.34 228.27l11.6 4.38 7.75-9.69-.58 12.39 11.6 4.38-11.95 3.28-.58 12.38-6.81-10.36-11.96 3.28 7.74-9.68Z"/></svg>